<?xml version="1.0" encoding="iso-8859-1"?>
<!-- Generator: Adobe Illustrator 16.0.0, SVG Export Plug-In . SVG Version: 6.00 Build 0)  -->
<!DOCTYPE svg PUBLIC "-//W3C//DTD SVG 1.1//EN" "http://www.w3.org/Graphics/SVG/1.1/DTD/svg11.dtd">
<svg version="1.1" id="Capa_1" xmlns="http://www.w3.org/2000/svg" xmlns:xlink="http://www.w3.org/1999/xlink" x="0px" y="0px"
	 width="217.08px" height="217.08px" viewBox="0 0 217.08 217.08" style="enable-background:new 0 0 217.08 217.08;"
	 xml:space="preserve">
<g>
	<g>
		<path d="M119.52,147.708c-4.003,0-12.158,21.664-12.158,46.803c0,22.569,7.324,22.569,12.158,22.569
			c4.846,0,12.167,0,12.167-22.569C131.687,169.372,123.527,147.708,119.52,147.708z"/>
		<path d="M62.807,147.708c-4.001,0-12.15,21.664-12.15,46.803c0,22.569,7.317,22.569,12.15,22.569c4.845,0,12.163,0,12.163-22.569
			C74.969,169.372,66.82,147.708,62.807,147.708z"/>
		<path d="M182.145,132.339c-9.062-4.416-17.385,20.807-34.191,36.66c0.553-3.795,0.905-7.826,0.905-12.206
			c0-28.693-12.695-58.311-31.236-73.475c-7.317,9.568-16.472,15.936-26.449,15.936c-9.979,0-19.139-6.376-26.443-15.928
			C46.198,98.511,33.495,128.1,33.495,156.793c0,17.957,4.979,30.957,13.229,39.926c-0.016-0.773-0.104-1.395-0.104-2.208
			c0-22.662,7.271-50.858,16.196-50.858c8.958,0,16.206,28.196,16.206,50.858c0,7.83-0.904,13.297-2.426,17.279
			c4.67,0.806,9.529,1.242,14.562,1.242c5.056,0,9.875-0.521,14.547-1.334c-1.475-3.983-2.396-9.413-2.396-17.188
			c0-22.662,7.269-50.858,16.204-50.858c8.953,0,16.19,28.196,16.19,50.858c0,4.172-0.305,7.538-0.773,10.535
			c2.063-0.521,4.448-1.282,7.354-2.316C173.023,191.753,188.6,135.465,182.145,132.339z"/>
		<path d="M38.624,70.404c3.985,1.074,10.211-7.96,15.689-19.22C59.741,73.851,74.168,95.21,91.166,95.21
			c17.003,0,31.428-21.368,36.846-44.026c5.49,11.267,11.701,20.294,15.689,19.22c6.944-1.859,4.468-33.544-0.325-51.467
			c-4.789-17.925-10.118-15.284-17.048-13.433c-1.435,0.385-2.785,0.729-4.055,1.154C115.108,0.058,103.841,0,91.149,0
			C78.454,0,67.197,0.058,60.028,6.658c-1.252-0.433-2.607-0.777-4.047-1.154c-6.927-1.851-12.255-4.492-17.054,13.433
			C34.138,36.853,31.697,68.535,38.624,70.404z M103.316,32.743c2.899,0,5.236,3.114,5.236,6.921c0,3.821-2.336,6.929-5.236,6.929
			c-2.889,0-5.236-3.108-5.236-6.929C98.08,35.84,100.427,32.743,103.316,32.743z M103.316,76.794
			c0,4.735-5.424,10.646-12.15,10.646c-6.712,0-12.155-5.919-12.155-10.646c0-4.741,5.428-5.559,12.155-5.559
			C97.892,71.236,103.316,72.062,103.316,76.794z M78.995,32.743c2.897,0,5.251,3.114,5.251,6.921c0,3.821-2.354,6.929-5.251,6.929
			c-2.879,0-5.222-3.108-5.222-6.929C73.773,35.84,76.116,32.743,78.995,32.743z"/>
	</g>
</g>
<g>
</g>
<g>
</g>
<g>
</g>
<g>
</g>
<g>
</g>
<g>
</g>
<g>
</g>
<g>
</g>
<g>
</g>
<g>
</g>
<g>
</g>
<g>
</g>
<g>
</g>
<g>
</g>
<g>
</g>
</svg>
